<?xml version="1.0" encoding="iso-8859-1"?>
<!-- Generator: Adobe Illustrator 21.1.0, SVG Export Plug-In . SVG Version: 6.00 Build 0)  -->
<svg version="1.1" id="Layer_1" xmlns="http://www.w3.org/2000/svg" xmlns:xlink="http://www.w3.org/1999/xlink" x="0px" y="0px"
	 viewBox="0 0 100.353 100.352" style="enable-background:new 0 0 100.353 100.352;" xml:space="preserve">
<g>
	<path d="M91.785,56.401H73.38c-0.393-12.726-10.861-22.959-23.68-22.959S26.413,43.675,26.02,56.401H8.134
		c-0.829,0-1.5,0.672-1.5,1.5s0.671,1.5,1.5,1.5h83.651c0.828,0,1.5-0.672,1.5-1.5S92.613,56.401,91.785,56.401z M49.699,36.441
		c11.164,0,20.268,8.89,20.662,19.959H29.038C29.432,45.331,38.536,36.441,49.699,36.441z"/>
	<path d="M76.746,72.115H21.357c-0.829,0-1.5,0.672-1.5,1.5s0.671,1.5,1.5,1.5h55.389c0.828,0,1.5-0.672,1.5-1.5
		S77.574,72.115,76.746,72.115z"/>
	<path d="M60.857,87.983H38.6c-0.829,0-1.5,0.672-1.5,1.5s0.671,1.5,1.5,1.5h22.257c0.828,0,1.5-0.672,1.5-1.5
		S61.686,87.983,60.857,87.983z"/>
	<path d="M50.444,30.108c0.829,0,1.5-0.671,1.5-1.5V10.635c0-0.829-0.671-1.5-1.5-1.5s-1.5,0.671-1.5,1.5v17.973
		C48.944,29.437,49.615,30.108,50.444,30.108z"/>
	<path d="M61.959,31.76c0.167,0.06,0.339,0.089,0.507,0.089c0.615,0,1.192-0.381,1.412-0.994l5.664-15.774
		c0.279-0.78-0.126-1.639-0.905-1.918c-0.781-0.28-1.64,0.125-1.919,0.905l-5.664,15.774C60.774,30.621,61.18,31.48,61.959,31.76z"
		/>
	<path d="M72.255,38.688c0.419,0,0.835-0.174,1.132-0.514l12.149-13.933c0.544-0.625,0.479-1.572-0.145-2.116
		c-0.627-0.545-1.572-0.479-2.117,0.145L71.125,36.202c-0.544,0.625-0.479,1.572,0.145,2.116
		C71.555,38.566,71.905,38.688,72.255,38.688z"/>
	<path d="M96.04,39.208c-0.373-0.74-1.275-1.038-2.015-0.664l-15.85,7.994c-0.739,0.373-1.036,1.275-0.663,2.015
		c0.264,0.523,0.792,0.825,1.34,0.825c0.228,0,0.458-0.052,0.675-0.161l15.85-7.994C96.116,40.849,96.413,39.947,96.04,39.208z"/>
	<path d="M37.213,30.855c0.22,0.612,0.796,0.994,1.412,0.994c0.168,0,0.339-0.029,0.507-0.089c0.78-0.28,1.185-1.139,0.905-1.918
		l-5.958-16.592c-0.28-0.78-1.141-1.186-1.918-0.905c-0.78,0.28-1.185,1.139-0.905,1.918L37.213,30.855z"/>
	<path d="M27.66,38.119c0.296,0.374,0.734,0.568,1.176,0.568c0.327,0,0.655-0.106,0.931-0.325c0.649-0.515,0.758-1.458,0.243-2.107
		L18.563,21.823c-0.516-0.65-1.459-0.759-2.107-0.243c-0.649,0.515-0.758,1.458-0.243,2.107L27.66,38.119z"/>
	<path d="M22.237,49.378c0.551,0,1.083-0.306,1.344-0.833c0.369-0.742,0.066-1.642-0.676-2.011L7.648,38.955
		c-0.741-0.369-1.643-0.067-2.011,0.676c-0.369,0.742-0.066,1.642,0.676,2.011L21.57,49.22
		C21.785,49.327,22.012,49.378,22.237,49.378z"/>
</g>
</svg>
