<?xml version="1.0" encoding="UTF-8" standalone="no"?>
<svg
   xmlns:sketch="http://www.bohemiancoding.com/sketch/ns"
   xmlns:dc="http://purl.org/dc/elements/1.1/"
   xmlns:cc="http://creativecommons.org/ns#"
   xmlns:rdf="http://www.w3.org/1999/02/22-rdf-syntax-ns#"
   xmlns:svg="http://www.w3.org/2000/svg"
   xmlns="http://www.w3.org/2000/svg"
   xmlns:sodipodi="http://sodipodi.sourceforge.net/DTD/sodipodi-0.dtd"
   xmlns:inkscape="http://www.inkscape.org/namespaces/inkscape"
   width="32px"
   height="32px"
   viewBox="0 0 32 32"
   version="1.1"
   id="svg287"
   sodipodi:docname="sun.svg"
   inkscape:version="1.0.2 (e86c870879, 2021-01-15, custom)">
  <metadata
     id="metadata291">
    <rdf:RDF>
      <cc:Work
         rdf:about="">
        <dc:format>image/svg+xml</dc:format>
        <dc:type
           rdf:resource="http://purl.org/dc/dcmitype/StillImage" />
        <dc:title>icon 29 sun</dc:title>
      </cc:Work>
    </rdf:RDF>
  </metadata>
  <sodipodi:namedview
     pagecolor="#ffffff"
     bordercolor="#666666"
     borderopacity="1"
     objecttolerance="10"
     gridtolerance="10"
     guidetolerance="10"
     inkscape:pageopacity="0"
     inkscape:pageshadow="2"
     inkscape:window-width="1920"
     inkscape:window-height="1051"
     id="namedview289"
     showgrid="false"
     inkscape:zoom="19.445436"
     inkscape:cx="12.412604"
     inkscape:cy="12.670925"
     inkscape:window-x="-9"
     inkscape:window-y="-9"
     inkscape:window-maximized="1"
     inkscape:current-layer="svg287" />
  <!-- Generator: Sketch 3.0.3 (7891) - http://www.bohemiancoding.com/sketch -->
  <title
     id="title278">icon 29 sun</title>
  <desc
     id="desc280">Created with Sketch.</desc>
  <defs
     id="defs282">
    <filter
       style="color-interpolation-filters:sRGB;"
       inkscape:label="Fade to Black or White"
       id="filter299">
      <feColorMatrix
         values="0 0 0 0 1 0 0 0 0 1 0 0 0 0 1 0 0 0 1 0"
         id="feColorMatrix297" />
    </filter>
  </defs>
  <g
     id="Page-1"
     stroke="none"
     stroke-width="1"
     fill="none"
     fill-rule="evenodd"
     sketch:type="MSPage"
     transform="matrix(1.6152299,0,0,1.6152299,-10.632001,-10.580575)"
     style="filter:url(#filter299)">
    <g
       id="icon-29-sun"
       sketch:type="MSArtboardGroup"
       fill="#000000">
      <path
         d="m 16.529053,22 c 3.037566,0 5.5,-2.462434 5.5,-5.5 0,-3.037566 -2.462434,-5.5 -5.5,-5.5 -3.037566,0 -5.5,2.462434 -5.5,5.5 0,3.037566 2.462434,5.5 5.5,5.5 z m 0,-1 c 2.485281,0 4.5,-2.014719 4.5,-4.5 0,-2.485281 -2.014719,-4.5 -4.5,-4.5 -2.485282,0 -4.5,2.014719 -4.5,4.5 0,2.485281 2.014718,4.5 4.5,4.5 z m 0,-14 c -0.276143,0 -0.5,0.2157526 -0.5,0.495389 v 2.009222 c 0,0.2735958 0.231933,0.495389 0.5,0.495389 0.276142,0 0.5,-0.2157526 0.5,-0.495389 V 7.495389 C 17.029053,7.2217932 16.797119,7 16.529053,7 Z M 23.26711,9.7909949 C 23.071848,9.5957328 22.760997,9.5900017 22.563264,9.7877345 L 21.14253,11.208469 c -0.193462,0.193461 -0.186291,0.514295 0.0033,0.703846 0.195262,0.195262 0.506114,0.200994 0.703846,0.0033 l 1.420735,-1.420735 c 0.193461,-0.193461 0.186291,-0.5142945 -0.0033,-0.7038461 z m 2.790995,6.7380581 c 0,-0.276143 -0.215752,-0.5 -0.495389,-0.5 h -2.009222 c -0.273595,0 -0.495389,0.231933 -0.495389,0.5 0,0.276142 0.215753,0.5 0.495389,0.5 h 2.009222 c 0.273596,0 0.495389,-0.231934 0.495389,-0.5 z M 23.26711,23.26711 c 0.195263,-0.195262 0.200994,-0.506113 0.0033,-0.703846 L 21.849636,21.14253 c -0.193461,-0.193462 -0.514294,-0.186291 -0.703846,0.0033 -0.195262,0.195262 -0.200993,0.506114 -0.0033,0.703846 l 1.420734,1.420735 c 0.193462,0.193461 0.514295,0.186291 0.703846,-0.0033 z m -6.738057,2.790995 c 0.276142,0 0.5,-0.215752 0.5,-0.495389 v -2.009222 c 0,-0.273595 -0.231934,-0.495389 -0.5,-0.495389 -0.276143,0 -0.5,0.215753 -0.5,0.495389 v 2.009222 c 0,0.273596 0.231933,0.495389 0.5,0.495389 z M 9.7909949,23.26711 c 0.1952622,0.195263 0.5061131,0.200994 0.7038461,0.0033 l 1.420735,-1.420735 c 0.193461,-0.193461 0.186291,-0.514294 -0.0033,-0.703846 -0.195262,-0.195262 -0.506113,-0.200993 -0.703846,-0.0033 l -1.4207345,1.420734 c -0.1934615,0.193462 -0.1862911,0.514295 0.00326,0.703846 z M 7,16.529053 c 0,0.276142 0.2157526,0.5 0.495389,0.5 h 2.009222 c 0.2735958,0 0.495389,-0.231934 0.495389,-0.5 0,-0.276143 -0.2157526,-0.5 -0.495389,-0.5 H 7.495389 C 7.2217932,16.029053 7,16.260986 7,16.529053 Z M 9.7909949,9.7909949 C 9.5957328,9.9862571 9.5900017,10.297108 9.7877345,10.494841 l 1.4207345,1.420735 c 0.193461,0.193461 0.514295,0.186291 0.703846,-0.0033 0.195262,-0.195262 0.200994,-0.506113 0.0033,-0.703846 L 10.494841,9.7877345 C 10.30138,9.594273 9.9805465,9.6014434 9.7909949,9.7909949 Z"
         id="sun"
         sketch:type="MSShapeGroup" />
    </g>
  </g>
</svg>
